# Blender v2.90.1 OBJ File: 'desk.blend'
# www.blender.org
mtllib desk.mtl
o Cube
v 8.888101 0.811579 -9.076522
v 8.888101 1.000000 -8.888101
v 9.076522 0.811579 -8.888101
v 8.888101 -1.000000 -8.888101
v 8.888101 -0.811579 -9.076522
v 9.076522 -0.811579 -8.888101
v 9.076522 0.811579 8.888101
v 8.888101 1.000000 8.888101
v 8.888101 0.811579 9.076522
v 9.076522 -0.811579 8.888101
v 8.888101 -0.811579 9.076522
v 8.888101 -1.000000 8.888101
v -8.888101 0.811579 -9.076522
v -9.076522 0.811579 -8.888101
v -8.888101 1.000000 -8.888101
v -9.076522 -0.811579 -8.888101
v -8.888101 -0.811579 -9.076522
v -8.888101 -1.000000 -8.888101
v -9.076522 0.811579 8.888101
v -8.888101 0.811579 9.076522
v -8.888101 1.000000 8.888101
v -8.888101 -1.000000 8.888101
v -8.888101 -0.811579 9.076522
v -9.076522 -0.811579 8.888101
vt 0.127595 0.502595
vt 0.372405 0.502595
vt 0.372405 0.747405
vt 0.127595 0.747405
vt 0.398553 0.002595
vt 0.601447 0.002595
vt 0.601447 0.247405
vt 0.398553 0.247405
vt 0.398553 0.752595
vt 0.601447 0.752595
vt 0.601447 0.997405
vt 0.398553 0.997405
vt 0.627595 0.502595
vt 0.872405 0.502595
vt 0.872405 0.747405
vt 0.627595 0.747405
vt 0.398553 0.502595
vt 0.601447 0.502595
vt 0.601447 0.747405
vt 0.398553 0.747405
vt 0.601447 0.497405
vt 0.625000 0.497405
vt 0.601447 0.500000
vt 0.372405 0.500000
vt 0.375000 0.502595
vt 0.625000 0.747405
vt 0.601447 0.750000
vt 0.398553 0.750000
vt 0.375000 0.752595
vt 0.375000 0.752595
vt 0.601447 0.250000
vt 0.625000 0.247405
vt 0.625000 0.247405
vt 0.398553 0.250000
vt 0.375000 0.247405
vt 0.601447 0.000000
vt 0.625000 0.002595
vt 0.127595 0.750000
vt 0.125000 0.747405
vt 0.125000 0.502595
vt 0.127595 0.500000
vt 0.398553 0.497405
vt 0.398553 0.000000
vt 0.601447 0.252595
vt 0.398553 0.252595
vt 0.625000 0.752595
vt 0.625000 0.997405
vt 0.372405 0.750000
vt 0.625000 0.252595
vn 0.0000 -1.0000 0.0000
vn -1.0000 0.0000 0.0000
vn 0.0000 0.0000 1.0000
vn 0.0000 1.0000 0.0000
vn 1.0000 0.0000 0.0000
vn 0.5773 0.5773 -0.5774
vn 0.5773 -0.5773 -0.5774
vn 0.5773 0.5773 0.5774
vn 0.5773 -0.5773 0.5774
vn -0.5773 0.5773 -0.5774
vn -0.5773 -0.5773 -0.5774
vn -0.5773 0.5773 0.5774
vn -0.5773 -0.5773 0.5774
vn -0.7071 -0.7071 0.0000
vn 0.0000 -0.7071 -0.7071
vn 0.7071 0.0000 -0.7071
vn -0.7071 0.0000 0.7071
vn 0.7071 0.0000 0.7071
vn -0.7071 0.0000 -0.7071
vn 0.0000 0.7071 0.7071
vn 0.7071 0.7071 0.0000
vn 0.0000 -0.7071 0.7071
vn -0.7071 0.7071 0.0000
vn 0.0000 0.7071 -0.7071
vn 0.7071 -0.7071 0.0000
vn 0.0000 0.0000 -1.0000
usemtl Material
s off
f 18/1/1 4/2/1 12/3/1 22/4/1
f 24/5/2 19/6/2 14/7/2 16/8/2
f 11/9/3 9/10/3 20/11/3 23/12/3
f 2/13/4 15/14/4 21/15/4 8/16/4
f 6/17/5 3/18/5 7/19/5 10/20/5
f 1/21/6 2/22/6 3/23/6
f 4/2/7 5/24/7 6/25/7
f 7/19/8 8/26/8 9/27/8
f 10/28/9 11/29/9 12/30/9
f 13/31/10 14/32/10 15/33/10
f 16/8/11 17/34/11 18/35/11
f 19/6/12 20/36/12 21/37/12
f 22/4/13 23/38/13 24/39/13
f 18/1/14 22/4/14 24/39/14 16/40/14
f 4/2/15 18/1/15 17/41/15 5/24/15
f 3/18/16 6/17/16 5/42/16 1/21/16
f 23/43/17 20/36/17 19/6/17 24/5/17
f 9/10/18 11/9/18 10/20/18 7/19/18
f 13/44/19 17/45/19 16/8/19 14/7/19
f 8/46/20 21/47/20 20/11/20 9/10/20
f 2/13/21 8/16/21 7/19/21 3/18/21
f 22/4/22 12/3/22 11/48/22 23/38/22
f 21/37/23 15/33/23 14/7/23 19/6/23
f 15/49/24 2/22/24 1/21/24 13/44/24
f 12/3/25 4/2/25 6/17/25 10/20/25
f 17/45/26 13/44/26 1/21/26 5/42/26
